<svg xmlns="http://www.w3.org/2000/svg" width="127" height="100" viewBox="0 0 127 100">
  <g id="Circle_Ornament" data-name="Circle Ornament" transform="translate(-1863 -1095)">
    <ellipse id="_01" data-name="01" cx="3.663" cy="3.554" rx="3.663" ry="3.554" transform="translate(1990 1095) rotate(90)" fill="#171717"/>
    <ellipse id="_02" data-name="02" cx="3.663" cy="3.554" rx="3.663" ry="3.554" transform="translate(1990 1125.891) rotate(90)" fill="#171717"/>
    <ellipse id="_03" data-name="03" cx="3.663" cy="3.554" rx="3.663" ry="3.554" transform="translate(1990 1156.782) rotate(90)" fill="#171717"/>
    <ellipse id="_04" data-name="04" cx="3.663" cy="3.554" rx="3.663" ry="3.554" transform="translate(1990 1187.673) rotate(90)" fill="#171717"/>
    <ellipse id="_05" data-name="05" cx="3.663" cy="3.554" rx="3.663" ry="3.554" transform="translate(1960.027 1095) rotate(90)" fill="#171717"/>
    <ellipse id="_06" data-name="06" cx="3.663" cy="3.554" rx="3.663" ry="3.554" transform="translate(1960.027 1125.891) rotate(90)" fill="#171717"/>
    <ellipse id="_07" data-name="07" cx="3.663" cy="3.554" rx="3.663" ry="3.554" transform="translate(1960.027 1156.782) rotate(90)" fill="#171717"/>
    <ellipse id="_08" data-name="08" cx="3.663" cy="3.554" rx="3.663" ry="3.554" transform="translate(1960.027 1187.673) rotate(90)" fill="#171717"/>
    <ellipse id="_09" data-name="09" cx="3.663" cy="3.554" rx="3.663" ry="3.554" transform="translate(1930.054 1095) rotate(90)" fill="#171717"/>
    <ellipse id="_10" data-name="10" cx="3.663" cy="3.554" rx="3.663" ry="3.554" transform="translate(1930.054 1125.891) rotate(90)" fill="#171717"/>
    <ellipse id="_11" data-name="11" cx="3.663" cy="3.554" rx="3.663" ry="3.554" transform="translate(1930.054 1156.782) rotate(90)" fill="#171717"/>
    <ellipse id="_12" data-name="12" cx="3.663" cy="3.554" rx="3.663" ry="3.554" transform="translate(1930.054 1187.673) rotate(90)" fill="#171717"/>
    <ellipse id="_13" data-name="13" cx="3.663" cy="3.554" rx="3.663" ry="3.554" transform="translate(1900.082 1095) rotate(90)" fill="#171717"/>
    <ellipse id="_14" data-name="14" cx="3.663" cy="3.554" rx="3.663" ry="3.554" transform="translate(1900.082 1125.891) rotate(90)" fill="#171717"/>
    <ellipse id="_15" data-name="15" cx="3.663" cy="3.554" rx="3.663" ry="3.554" transform="translate(1900.082 1156.782) rotate(90)" fill="#171717"/>
    <ellipse id="_16" data-name="16" cx="3.663" cy="3.554" rx="3.663" ry="3.554" transform="translate(1900.082 1187.673) rotate(90)" fill="#171717"/>
    <ellipse id="_17" data-name="17" cx="3.663" cy="3.554" rx="3.663" ry="3.554" transform="translate(1870.109 1095) rotate(90)" fill="#171717"/>
    <ellipse id="_18" data-name="18" cx="3.663" cy="3.554" rx="3.663" ry="3.554" transform="translate(1870.109 1125.891) rotate(90)" fill="#171717"/>
    <ellipse id="_19" data-name="19" cx="3.663" cy="3.554" rx="3.663" ry="3.554" transform="translate(1870.109 1156.782) rotate(90)" fill="#171717"/>
    <ellipse id="_20" data-name="20" cx="3.663" cy="3.554" rx="3.663" ry="3.554" transform="translate(1870.109 1187.673) rotate(90)" fill="#171717"/>
  </g>
</svg>
