<svg xmlns="http://www.w3.org/2000/svg" width="127" height="100" viewBox="0 0 127 100">
  <g id="Circle_Ornament" data-name="Circle Ornament" transform="translate(-1240 -167)">
    <ellipse id="_01" data-name="01" cx="3.663" cy="3.554" rx="3.663" ry="3.554" transform="translate(1367 167) rotate(90)" fill="#0068b3"/>
    <ellipse id="_02" data-name="02" cx="3.663" cy="3.554" rx="3.663" ry="3.554" transform="translate(1367 197.891) rotate(90)" fill="#0068b3"/>
    <ellipse id="_03" data-name="03" cx="3.663" cy="3.554" rx="3.663" ry="3.554" transform="translate(1367 228.782) rotate(90)" fill="#0068b3"/>
    <ellipse id="_04" data-name="04" cx="3.663" cy="3.554" rx="3.663" ry="3.554" transform="translate(1367 259.673) rotate(90)" fill="#0068b3"/>
    <ellipse id="_05" data-name="05" cx="3.663" cy="3.554" rx="3.663" ry="3.554" transform="translate(1337.027 167) rotate(90)" fill="#0068b3"/>
    <ellipse id="_06" data-name="06" cx="3.663" cy="3.554" rx="3.663" ry="3.554" transform="translate(1337.027 197.891) rotate(90)" fill="#0068b3"/>
    <ellipse id="_07" data-name="07" cx="3.663" cy="3.554" rx="3.663" ry="3.554" transform="translate(1337.027 228.782) rotate(90)" fill="#0068b3"/>
    <ellipse id="_08" data-name="08" cx="3.663" cy="3.554" rx="3.663" ry="3.554" transform="translate(1337.027 259.673) rotate(90)" fill="#0068b3"/>
    <ellipse id="_09" data-name="09" cx="3.663" cy="3.554" rx="3.663" ry="3.554" transform="translate(1307.054 167) rotate(90)" fill="#0068b3"/>
    <ellipse id="_10" data-name="10" cx="3.663" cy="3.554" rx="3.663" ry="3.554" transform="translate(1307.054 197.891) rotate(90)" fill="#0068b3"/>
    <ellipse id="_11" data-name="11" cx="3.663" cy="3.554" rx="3.663" ry="3.554" transform="translate(1307.054 228.782) rotate(90)" fill="#0068b3"/>
    <ellipse id="_12" data-name="12" cx="3.663" cy="3.554" rx="3.663" ry="3.554" transform="translate(1307.054 259.673) rotate(90)" fill="#0068b3"/>
    <ellipse id="_13" data-name="13" cx="3.663" cy="3.554" rx="3.663" ry="3.554" transform="translate(1277.082 167) rotate(90)" fill="#0068b3"/>
    <ellipse id="_14" data-name="14" cx="3.663" cy="3.554" rx="3.663" ry="3.554" transform="translate(1277.082 197.891) rotate(90)" fill="#0068b3"/>
    <ellipse id="_15" data-name="15" cx="3.663" cy="3.554" rx="3.663" ry="3.554" transform="translate(1277.082 228.782) rotate(90)" fill="#0068b3"/>
    <ellipse id="_16" data-name="16" cx="3.663" cy="3.554" rx="3.663" ry="3.554" transform="translate(1277.082 259.673) rotate(90)" fill="#0068b3"/>
    <ellipse id="_17" data-name="17" cx="3.663" cy="3.554" rx="3.663" ry="3.554" transform="translate(1247.109 167) rotate(90)" fill="#0068b3"/>
    <ellipse id="_18" data-name="18" cx="3.663" cy="3.554" rx="3.663" ry="3.554" transform="translate(1247.109 197.891) rotate(90)" fill="#0068b3"/>
    <ellipse id="_19" data-name="19" cx="3.663" cy="3.554" rx="3.663" ry="3.554" transform="translate(1247.109 228.782) rotate(90)" fill="#0068b3"/>
    <ellipse id="_20" data-name="20" cx="3.663" cy="3.554" rx="3.663" ry="3.554" transform="translate(1247.109 259.673) rotate(90)" fill="#0068b3"/>
  </g>
</svg>
